<svg width="89" height="101" viewBox="0 0 89 101" fill="none" xmlns="http://www.w3.org/2000/svg">
<path fill-rule="evenodd" clip-rule="evenodd" d="M17.105 79.4782C17.105 79.4782 34.9655 86.7836 48.4932 74.4651C56.3277 67.3612 53.5314 59.426 48.6947 57.0832C48.6947 57.0832 59.9552 52.5992 62.1216 67.1093C64.0866 80.2843 41.1122 88.547 44.9664 100.991C44.9664 100.991 34.1846 98.8754 35.3686 89.5294C35.3686 89.5294 22.899 90.5371 17.105 79.4782Z" fill="#C48A9A"/>
<path fill-rule="evenodd" clip-rule="evenodd" d="M56.4785 88.8744C56.4785 88.8744 71.5933 76.9086 67.5123 59.0733C65.1695 48.7952 56.8816 47.3342 52.4731 50.4075C52.4731 50.4075 54.0854 38.3913 67.7894 43.6311C80.259 48.3922 76.1781 72.4498 88.9248 75.1956C88.9248 75.1956 81.7705 83.5591 74.2383 77.9415C74.2383 77.9415 68.9986 89.2775 56.4785 88.8744Z" fill="#C48A9A"/>
<path fill-rule="evenodd" clip-rule="evenodd" d="M84.0127 59.1742C84.0127 59.1742 80.9898 40.1296 63.4567 34.9654C53.3298 31.9677 47.9893 38.467 48.5183 43.8075C48.5183 43.8075 38.8449 36.4769 50.1306 27.1058C60.3582 18.5911 79.3523 33.9326 87.9929 24.1836C87.9929 24.1836 91.7464 34.512 83.1814 38.341C83.1814 38.341 90.4869 48.4679 84.0127 59.1742Z" fill="#C48A9A"/>
<path fill-rule="evenodd" clip-rule="evenodd" d="M71.6436 20.6316C71.6436 20.6316 53.5563 13.9307 40.4569 26.6523C32.8743 34.0081 35.8973 41.8678 40.8096 44.0342C40.8096 44.0342 29.7002 48.8709 27.0804 34.4364C24.662 21.3117 47.3593 12.3185 43.102 0C43.102 0 53.9594 1.78857 53.0777 11.1345C53.0777 11.1345 65.4717 9.74899 71.6436 20.6316Z" fill="#C48A9A"/>
<path fill-rule="evenodd" clip-rule="evenodd" d="M31.9676 12.4949C31.9676 12.4949 17.256 24.9645 21.9163 42.6487C24.6118 52.8512 32.9501 54.0603 37.2326 50.8359C37.2326 50.8359 35.9982 62.9025 22.1179 58.1161C9.52227 53.7832 12.7971 29.5745 0 27.2569C0 27.2569 6.852 18.6919 14.5857 24.0324C14.5857 24.0324 19.4476 12.5453 31.9676 12.4949Z" fill="#C48A9A"/>
<path fill-rule="evenodd" clip-rule="evenodd" d="M5.41618 43.1021C5.41618 43.1021 9.06891 62.0458 26.7531 66.6558C36.9808 69.3009 42.0946 62.6252 41.4144 57.3099C41.4144 57.3099 51.3145 64.2878 40.3564 74.062C30.3807 82.8789 10.9079 68.1421 2.56958 78.1934C2.56958 78.1934 -1.53659 67.991 6.90246 63.91C6.90246 63.91 -0.680086 54.0098 5.41618 43.1021Z" fill="#C48A9A"/>
</svg>
