<svg width="223" height="176" viewBox="0 0 223 176" fill="none" xmlns="http://www.w3.org/2000/svg">
<path fill-rule="evenodd" clip-rule="evenodd" d="M84.105 116.478C84.105 116.478 101.966 123.784 115.493 111.465C123.328 104.361 120.531 96.426 115.695 94.0832C115.695 94.0832 126.955 89.5992 129.122 104.109C131.087 117.284 108.112 125.547 111.966 137.991C111.966 137.991 101.185 135.875 102.369 126.529C102.369 126.529 89.899 127.537 84.105 116.478Z" fill="#C48A9A"/>
<path fill-rule="evenodd" clip-rule="evenodd" d="M123.479 125.874C123.479 125.874 138.593 113.909 134.512 96.0733C132.17 85.7952 123.882 84.3342 119.473 87.4075C119.473 87.4075 121.085 75.3913 134.789 80.6311C147.259 85.3922 143.178 109.45 155.925 112.196C155.925 112.196 148.77 120.559 141.238 114.941C141.238 114.941 135.999 126.277 123.479 125.874Z" fill="#C48A9A"/>
<path fill-rule="evenodd" clip-rule="evenodd" d="M151.013 96.1742C151.013 96.1742 147.99 77.1296 130.457 71.9654C120.33 68.9677 114.989 75.467 115.518 80.8075C115.518 80.8075 105.845 73.4769 117.131 64.1058C127.358 55.5911 146.352 70.9326 154.993 61.1836C154.993 61.1836 158.746 71.512 150.181 75.341C150.181 75.341 157.487 85.4679 151.013 96.1742Z" fill="#C48A9A"/>
<path fill-rule="evenodd" clip-rule="evenodd" d="M138.644 57.6316C138.644 57.6316 120.556 50.9307 107.457 63.6523C99.8743 71.0081 102.897 78.8678 107.81 81.0342C107.81 81.0342 96.7002 85.8709 94.0804 71.4364C91.662 58.3117 114.359 49.3185 110.102 37C110.102 37 120.959 38.7886 120.078 48.1345C120.078 48.1345 132.472 46.749 138.644 57.6316Z" fill="#C48A9A"/>
<path fill-rule="evenodd" clip-rule="evenodd" d="M98.9676 49.4949C98.9676 49.4949 84.256 61.9645 88.9163 79.6487C91.6118 89.8512 99.9501 91.0603 104.233 87.8359C104.233 87.8359 102.998 99.9025 89.1179 95.1161C76.5223 90.7832 79.7971 66.5745 67 64.2569C67 64.2569 73.852 55.6919 81.5857 61.0324C81.5857 61.0324 86.4476 49.5453 98.9676 49.4949Z" fill="#C48A9A"/>
<path fill-rule="evenodd" clip-rule="evenodd" d="M72.4162 80.1021C72.4162 80.1021 76.0689 99.0458 93.7531 103.656C103.981 106.301 109.095 99.6252 108.414 94.3099C108.414 94.3099 118.315 101.288 107.356 111.062C97.3807 119.879 77.9079 105.142 69.5696 115.193C69.5696 115.193 65.4634 104.991 73.9025 100.91C73.9025 100.91 66.3199 91.0098 72.4162 80.1021Z" fill="#C48A9A"/>
</svg>
